<svg xmlns="http://www.w3.org/2000/svg" viewBox="0 0 338.02817 338.02817" id="svg3680" version="1.1">
  <path
    id="path3820"
    d="M 125.96468,329.43687 C 97.37806,321.73815 74.271435,308.13685 52.081376,285.94679 19.665837,253.53125 3.3802817,214.42917 3.3802817,169.01408 3.3802817,123.50566 19.420704,85.306439 52.363572,52.363572 85.306439,19.420704 123.50566,3.3802817 169.01408,3.3802817 c 45.4434,0 83.41545,15.9244793 117.02781,49.0783873 51.78647,51.080141 63.49371,128.233771 29.60563,195.108661 -11.44181,22.57933 -45.50086,56.63838 -68.08019,68.08019 -36.69202,18.59325 -83.89124,23.94548 -121.60265,13.78935 z m 68.40152,-8.26437 c 63.6815,-10.34702 116.63025,-63.9683 127.04898,-128.6627 4.11637,-25.5603 1.00276,-57.29853 -5.62114,-57.29853 -3.54325,0 -4.11561,4.69198 -2.57929,21.14404 8.62843,92.39983 -75.72273,171.11382 -166.67339,155.53463 C 100.27499,303.96485 54.067606,269.744 38.489334,231.8674 c -3.50716,-8.52722 -8.278066,-15.50973 -10.60201,-15.5167 -6.491699,-0.0195 -5.152042,5.75306 6.338174,27.31091 24.189481,45.38412 77.507342,78.01724 131.408302,80.42827 4.64789,0.20792 17.57747,-1.10492 28.7324,-2.91738 z M 24.353688,175.49262 C 20.976995,102.13725 73.116085,38.715445 147.23577,26.01928 204.3399,16.237758 268.2869,47.594427 295.73537,98.836662 307.40735,120.62652 306.41822,119.44271 310.7274,116.77949 316.42216,113.25993 298.83483,82.17069 279.70888,61.947813 258.56798,39.594426 225.47174,22.433117 192.91189,16.941187 129.50778,6.2466991 61.18704,40.652677 32.187051,97.881397 19.953318,122.02351 12.436663,159.2495 15.22554,181.88273 c 3.245693,26.34055 10.404129,21.32933 9.128148,-6.39011 z"
    style="fill:#c1c1c1;stroke-width:3.38028169" />
  <path
    id="path3818"
    d="M 129.62663,329.84854 C 56.823864,312.18924 3.3802817,244.10355 3.3802817,169.01408 3.3802817,78.903529 78.903529,3.3802817 169.01408,3.3802817 c 76.66185,0 146.31498,56.4253493 161.89831,131.1522983 24.81706,119.00561 -83.31558,223.93122 -201.28576,195.31596 z m 70.48868,-9.10911 c 60.4882,-12.72251 109.3136,-62.66551 121.20232,-123.97661 3.48402,-17.96736 2.62741,-59.86003 -1.30439,-63.79183 -0.60377,-0.60377 -36.72698,17.88745 -80.27381,41.0916 -43.54683,23.20416 -82.59858,42.20874 -86.78168,42.2324 -10.04478,0.0568 -9.91085,-9.04042 0.74417,-50.54815 4.51786,-17.59981 7.85834,-32.35559 7.42329,-32.79064 -0.43505,-0.43505 -31.50683,18.52817 -69.048405,42.14049 -62.745141,39.46446 -68.109561,43.59556 -66.4266,51.1546 5.501306,24.70922 43.899787,66.75011 74.494245,81.56064 32.0942,15.53653 66.44641,19.97871 99.97086,12.9275 z M 104.13545,147.16784 c 56.75317,-35.17044 76.36294,-45.76805 79.28396,-42.84703 2.92101,2.92102 1.53528,13.28259 -5.60263,41.89272 -5.21594,20.90651 -10.29943,40.15853 -11.29665,42.78229 -0.99721,2.62376 16.26865,-4.84622 38.36859,-16.59994 63.60739,-33.82923 100.63234,-52.9328 105.86402,-54.62213 8.48978,-2.74137 -9.08398,-32.872425 -33.35306,-57.185381 C 251.61552,34.757581 227.72614,22.21302 192.96873,16.252784 144.06418,7.8665845 97.823737,23.352998 60.588369,60.588369 23.88428,97.292454 6.7139659,147.65434 15.657768,192.37335 c 1.881213,9.40606 2.790439,10.13563 7.605634,6.10282 3.007946,-2.51922 39.400365,-25.60796 80.872048,-51.30833 z"
    style="fill:#9eb4cc;stroke-width:3.38028169" />
</svg>
